<?xml version="1.0" encoding="UTF-8" standalone="no"?>
<!-- Created with Inkscape (http://www.inkscape.org/) -->

<svg
   version="1.1"
   id="svg1"
   width="220.38933"
   height="159.98132"
   viewBox="0 0 220.38933 159.98132"
   xmlns="http://www.w3.org/2000/svg"
   xmlns:svg="http://www.w3.org/2000/svg">
  <defs
     id="defs1" />
  <g
     id="g1">
    <path
       id="path1"
       d="M -72.57445,-46.75824 V 73.22949 H 92.71925 V -46.75824 Z"
       style="fill:#ccccff;fill-opacity:1;fill-rule:nonzero;stroke:none"
       transform="matrix(1.3333333,0,0,-1.3333333,96.765333,97.637333)" />
    <path
       id="path2"
       d="M 8.52843,0 C 8.52843,4.71017 4.71017,8.52843 0,8.52843 -4.71017,8.52843 -8.52843,4.71017 -8.52843,0 c 0,-4.71017 3.81826,-8.52843 8.52843,-8.52843 4.71017,0 8.52843,3.81826 8.52843,8.52843 z"
       style="fill:none;stroke:#000000;stroke-width:0.79701;stroke-linecap:butt;stroke-linejoin:miter;stroke-miterlimit:10;stroke-dasharray:none;stroke-opacity:1"
       transform="matrix(1.3333333,0,0,-1.3333333,96.765333,97.637333)" />
    <path
       id="path3"
       d="m 2.0736172,-1.9345234 c 0.2226562,0.035156 1.03125,0.1992187 1.03125,0.9140625 0,0.51562496 -0.3515625,0.91406246 -1.125,0.91406246 -0.8320313,0 -1.19531251,-0.57421875 -1.38281251,-1.41796876 -0.0351563,-0.1289062 -0.0351563,-0.1757812 -0.140625,-0.1757812 -0.12890625,0 -0.12890625,0.070312 -0.12890625,0.2578125 v 1.31249996 c 0,0.1640625 0,0.234375 0.10546875,0.234375 0.0585938,0 0.0703125,0 0.2578125,-0.19921875 0.0117188,-0.01171875 0.0117188,-0.03515625 0.19921875,-0.22265625 0.43359376,0.421875 0.87890626,0.421875 1.08984376,0.421875 1.1484375,0 1.6054687,-0.66796875 1.6054687,-1.38281246 0,-0.5273438 -0.2929687,-0.8203125 -0.421875,-0.9492188 -0.328125,-0.3164062 -0.7148437,-0.3984375 -1.1367187,-0.46875 -0.5507813,-0.1171875 -1.21875001,-0.2460937 -1.21875001,-0.8203125 0,-0.3515625 0.25781251,-0.7617187 1.11328121,-0.7617187 1.1015625,0 1.1484375,0.9023437 1.171875,1.2070312 0,0.09375 0.09375,0.09375 0.1171875,0.09375 0.1289063,0 0.1289063,-0.046875 0.1289063,-0.2460937 v -0.9960938 c 0,-0.1757812 0,-0.2460937 -0.1171875,-0.2460937 -0.046875,0 -0.070312,0 -0.1992188,0.1171875 -0.023437,0.046875 -0.1289062,0.1289062 -0.1640625,0.1640625 -0.375,-0.28125 -0.7851562,-0.28125 -0.9375,-0.28125 -1.21874996,0 -1.59374996,0.6679687 -1.59374996,1.2304687 0,0.3398438 0.1640625,0.6210938 0.43359375,0.84375 0.31640621,0.2578125 0.59765621,0.3164063 1.31250001,0.4570313 z m 0,0"
       style="fill:#000000;fill-opacity:1;fill-rule:nonzero;stroke:none"
       aria-label="s"
       transform="matrix(1.3333333,0,0,1.3333333,94.145333,100.49733)" />
    <path
       id="path4"
       d="m -37.47299,0 c 0,1.10046 -0.89208,1.99255 -1.99256,1.99255 -1.10046,0 -1.99255,-0.89209 -1.99255,-1.99255 0,-1.10046 0.89209,-1.99255 1.99255,-1.99255 1.10048,0 1.99256,0.89209 1.99256,1.99255 z"
       style="fill:#000000;fill-opacity:1;fill-rule:nonzero;stroke:none"
       transform="matrix(1.3333333,0,0,-1.3333333,96.765333,97.637333)" />
    <path
       id="path5"
       d="m 1.7580156,-6.9145625 -1.42968748,0.1054688 v 0.3164062 c 0.70312498,0 0.77343748,0.070312 0.77343748,0.5507813 v 5.17968745 c 0,0.45703125 -0.10546873,0.45703125 -0.77343748,0.45703125 V -5e-4 c 0.328125,-0.01171875 0.85546878,-0.03515625 1.10156248,-0.03515625 0.2578125,0 0.7382813,0.0234375 1.1132813,0.03515625 v -0.3046875 c -0.6679688,0 -0.7851563,0 -0.7851563,-0.45703125 z m 2.1240235,4.40625 c 0.058594,-1.4882812 0.9023437,-1.734375 1.2421875,-1.734375 1.0195312,0 1.125,1.3476563 1.125,1.734375 z m -0.011719,0.2109375 h 2.7890625 c 0.2109375,0 0.2460938,0 0.2460938,-0.2109375 0,-0.984375 -0.5390625,-1.9570312 -1.78125,-1.9570312 -1.1601563,0 -2.0742188,1.03125 -2.0742188,2.2734375 0,1.33593745 1.0429688,2.29687495 2.1914063,2.29687495 1.21875,0 1.6640625,-1.1015625 1.6640625,-1.28906245 0,-0.1054688 -0.082031,-0.1171875 -0.1289063,-0.1171875 -0.09375,0 -0.1171875,0.058594 -0.1289062,0.140625 -0.3515625,1.0195312 -1.2539063,1.0195312 -1.3476563,1.0195312 -0.5039062,0 -0.9023437,-0.29296875 -1.125,-0.66796875 C 3.8703203,-1.2895625 3.8703203,-1.9458125 3.8703201,-2.297375 Z m 5.0712891,-1.9921875 v -1.1601562 c 0,-0.8789063 0.4804687,-1.359375 0.9140625,-1.359375 0.035156,0 0.1757813,0 0.3281253,0.070312 -0.117188,0.046875 -0.2929691,0.1757812 -0.2929691,0.421875 0,0.234375 0.1523441,0.4335937 0.4218751,0.4335937 0.292969,0 0.433594,-0.1992187 0.433594,-0.4453125 0,-0.3632812 -0.363281,-0.6914062 -0.8906253,-0.6914062 -0.703125,0 -1.546875,0.5273437 -1.546875,1.5820312 V -4.289563 H 7.5236406 v 0.3046875 h 0.7851563 v 3.22265625 c 0,0.45703125 -0.1054688,0.45703125 -0.7734375,0.45703125 V -5e-4 c 0.3867187,-0.01171875 0.8554687,-0.03515625 1.1367187,-0.03515625 0.3984375,0 0.8671875,0 1.265625,0.03515625 V -0.3051875 H 9.7267656 c -0.7382812,0 -0.7617187,-0.1171875 -0.7617187,-0.46875 V -3.984875 h 1.1367191 v -0.3046875 z m 3.0205078,0.3046875 h 1.429688 v -0.3046875 h -1.429688 v -1.8398437 h -0.246094 c -0.01172,0.8203125 -0.316406,1.8867187 -1.289062,1.921875 v 0.2226562 h 0.84375 v 2.7539063 c 0,1.21874995 0.925781,1.33593745 1.289062,1.33593745 0.703125,0 0.984375,-0.703125 0.984375,-1.33593745 v -0.5742188 h -0.246093 v 0.5507813 c 0,0.7382812 -0.304688,1.1132812 -0.667969,1.1132812 -0.667969,0 -0.667969,-0.9023437 -0.667969,-1.078125 z m 0,0"
       style="fill:#000000;fill-opacity:1;fill-rule:nonzero;stroke:none"
       aria-label="left"
       transform="matrix(1.3333333,0,0,1.3333333,17.710667,102.25067)" />
    <path
       id="path6"
       d="m 41.4581,0 c 0,1.10046 -0.89209,1.99255 -1.99255,1.99255 -1.10048,0 -1.99256,-0.89209 -1.99256,-1.99255 0,-1.10046 0.89208,-1.99255 1.99256,-1.99255 1.10046,0 1.99255,0.89209 1.99255,1.99255 z"
       style="fill:#000000;fill-opacity:1;fill-rule:nonzero;stroke:none"
       transform="matrix(1.3333333,0,0,-1.3333333,96.765333,97.637333)" />
    <path
       id="path7"
       d="m 1.6655,-3.3036328 v -1.1015625 l -1.3828125,0.1171875 v 0.3046875 c 0.69140625,0 0.7734375,0.070312 0.7734375,0.5625 v 2.66015624 c 0,0.45703125 -0.10546875,0.45703125 -0.7734375,0.45703125 v 0.3046875 c 0.38671875,-0.01171875 0.8554687,-0.03515625 1.1367187,-0.03515625 0.3984375,0 0.8671875,0 1.265625,0.03515625 v -0.3046875 H 2.4740937 c -0.7382812,0 -0.7617187,-0.1171875 -0.7617187,-0.46875 V -2.3075391 c 0,-0.984375 0.421875,-1.875 1.1835937,-1.875 0.058594,0 0.082031,0 0.1054688,0.011719 -0.035156,0.011719 -0.234375,0.1289062 -0.234375,0.3867187 0,0.28125 0.2109375,0.4335938 0.4335937,0.4335938 0.1757813,0 0.421875,-0.1289063 0.421875,-0.4453125 0,-0.3164063 -0.3046875,-0.609375 -0.7265625,-0.609375 -0.7382812,0 -1.0898437,0.6679687 -1.2304687,1.1015623 z m 3.9960937,-1.1015625 -1.3945312,0.1171875 v 0.3046875 c 0.65625,0 0.7382812,0.058594 0.7382812,0.5507812 v 2.67187504 c 0,0.45703125 -0.1054687,0.45703125 -0.7734375,0.45703125 v 0.3046875 c 0.3164063,-0.01171875 0.8554688,-0.03515625 1.1015625,-0.03515625 0.3398438,0 0.6914063,0.0234375 1.03125,0.03515625 v -0.3046875 c -0.65625,0 -0.703125,-0.0585938 -0.703125,-0.4453125 z m 0.046875,-1.734375 c 0,-0.3164063 -0.2460937,-0.5273438 -0.5273437,-0.5273438 -0.3164063,0 -0.5273438,0.2695313 -0.5273438,0.5273438 0,0.2695312 0.2109375,0.5273437 0.5273438,0.5273437 0.28125,0 0.5273437,-0.1992187 0.5273437,-0.5273437 z M 8.88425,-1.7098828 c -0.8671875,0 -0.8671875,-0.9960938 -0.8671875,-1.2304688 0,-0.2695312 0.011719,-0.5859375 0.1523437,-0.8320312 0.082031,-0.1171875 0.3164063,-0.3984375 0.7148438,-0.3984375 0.8671875,0 0.8671875,0.9960937 0.8671875,1.21875 0,0.2695312 -0.011719,0.5976562 -0.1640625,0.84375 -0.082031,0.1171875 -0.3046875,0.3984375 -0.703125,0.3984375 z m -1.1601563,0.3867187 c 0,-0.035156 0,-0.2695312 0.1757813,-0.46875 0.3867187,0.28125 0.796875,0.3046875 0.984375,0.3046875 0.9257812,0 1.605469,-0.6796875 1.605469,-1.453125 0,-0.3632812 -0.152344,-0.7382812 -0.398438,-0.9609375 0.351563,-0.3398437 0.714844,-0.3867187 0.890625,-0.3867187 0.02344,0 0.07031,0 0.105469,0 -0.117188,0.046875 -0.164063,0.1523437 -0.164063,0.2695312 0,0.1757813 0.128907,0.2929688 0.292969,0.2929688 0.09375,0 0.28125,-0.070312 0.28125,-0.2929688 0,-0.1757812 -0.117187,-0.4921875 -0.503906,-0.4921875 -0.199219,0 -0.632813,0.058594 -1.0546875,0.46875 -0.421875,-0.328125 -0.84375,-0.3632812 -1.0546875,-0.3632812 -0.9257813,0 -1.6171875,0.6914062 -1.6171875,1.453125 0,0.4453125 0.2226562,0.8203125 0.46875,1.03125 -0.1289063,0.1523437 -0.3046875,0.4804687 -0.3046875,0.8203125 0,0.31640624 0.1289062,0.69140624 0.4335937,0.89062499 -0.5976562,0.17578125 -0.9140625,0.59765625 -0.9140625,0.99609375 0,0.71484376 0.984375,1.26562496 2.203125,1.26562496 1.1718748,0 2.2031248,-0.5039062 2.2031248,-1.28906246 0,-0.33984375 -0.140625,-0.85546875 -0.644531,-1.125 -0.527344,-0.28125 -1.1015625,-0.28125 -1.7109375,-0.28125 -0.2460938,0 -0.6796875,0 -0.75,-0.0117188 C 7.9350312,-0.70207031 7.7240937,-1.0067578 7.7240937,-1.3231641 Z M 9.1655,1.8291797 c -1.0078125,0 -1.6992188,-0.515625 -1.6992188,-1.04296876 0,-0.45703125 0.375,-0.8203125 0.8203125,-0.85546875 h 0.5859375 c 0.8554688,0 1.9687498,0 1.9687498,0.85546875 0,0.53906246 -0.703125,1.04296876 -1.675781,1.04296876 z m 3.585937,-2.58984376 c 0,0.45703125 -0.117187,0.45703125 -0.785156,0.45703125 v 0.3046875 c 0.351563,-0.01171875 0.855469,-0.03515625 1.125,-0.03515625 0.257813,0 0.785156,0.0234375 1.113281,0.03515625 v -0.3046875 c -0.65625,0 -0.773437,0 -0.773437,-0.45703125 V -2.5887891 c 0,-1.03125 0.714844,-1.59375 1.347656,-1.59375 0.621094,0 0.738281,0.5390625 0.738281,1.1015625 v 2.32031254 c 0,0.45703125 -0.117187,0.45703125 -0.773437,0.45703125 v 0.3046875 c 0.339844,-0.01171875 0.855469,-0.03515625 1.125,-0.03515625 0.257812,0 0.773437,0.0234375 1.113281,0.03515625 v -0.3046875 c -0.515625,0 -0.773437,0 -0.785156,-0.3046875 V -2.5067578 c 0,-0.8554688 0,-1.171875 -0.304688,-1.5234375 -0.140625,-0.1757813 -0.46875,-0.375 -1.042968,-0.375 -0.84375,0 -1.277344,0.5976562 -1.441407,0.984375 v -3.4921875 l -1.441406,0.1054687 v 0.3164063 c 0.703125,0 0.785156,0.070312 0.785156,0.5507812 z M 18.63132,-3.9833203 h 1.429688 V -4.2880078 H 18.63132 v -1.8398438 h -0.246093 c -0.01172,0.8203125 -0.316407,1.8867188 -1.289063,1.921875 v 0.2226563 h 0.84375 v 2.7539062 c 0,1.21875004 0.925781,1.33593754 1.289063,1.33593754 0.703125,0 0.984375,-0.703125 0.984375,-1.33593754 v -0.5742187 h -0.246094 v 0.5507812 c 0,0.73828129 -0.304688,1.11328129 -0.667969,1.11328129 -0.667969,0 -0.667969,-0.90234379 -0.667969,-1.07812499 z m 0,0"
       style="fill:#000000;fill-opacity:1;fill-rule:nonzero;stroke:none"
       aria-label="right"
       transform="matrix(1.3333333,0,0,1.3333333,135.52933,87.44)" />
    <path
       id="path8"
       d="M 70.40266,-5.97766 H 82.35798 V 5.97766 H 70.40266 Z"
       style="fill:#b3b3b3;fill-opacity:1;fill-rule:nonzero;stroke:#000000;stroke-width:0.79701;stroke-linecap:butt;stroke-linejoin:miter;stroke-miterlimit:10;stroke-dasharray:none;stroke-opacity:1"
       transform="matrix(1.3333333,0,0,-1.3333333,96.765333,97.637333)" />
    <path
       id="path9"
       d="M -8.92693,0 H -37.27374"
       style="fill:none;stroke:#000000;stroke-width:0.3985;stroke-linecap:butt;stroke-linejoin:miter;stroke-miterlimit:10;stroke-dasharray:none;stroke-opacity:1"
       transform="matrix(1.3333333,0,0,-1.3333333,96.765333,97.637333)" />
    <path
       id="path10"
       d="m -39.46555,2.1918 c 0,56.6913 115.84588,60.87567 115.84588,12.48914"
       style="fill:none;stroke:#000000;stroke-width:0.3985;stroke-linecap:butt;stroke-linejoin:miter;stroke-miterlimit:10;stroke-dasharray:none;stroke-opacity:1"
       transform="matrix(1.3333333,0,0,-1.3333333,96.765333,97.637333)" />
    <path
       id="path11"
       d="M 7.48325,0 C 6.56427,0.22145 2.52473,1.47641 0,2.84209 V -2.84209 C 2.52473,-1.47641 6.56427,-0.22145 7.48325,0 Z"
       style="fill:#000000;fill-opacity:1;fill-rule:nonzero;stroke:#000000;stroke-width:0.3985;stroke-linecap:butt;stroke-linejoin:miter;stroke-miterlimit:10;stroke-dasharray:none;stroke-opacity:1"
       transform="matrix(0,1.3333333,1.3333333,0,198.60577,78.062747)" />
    <g
       id="g11"
       aria-label="R=+1"
       transform="matrix(1.3333333,0,0,1.3333333,98.937333,29.436)">
      <path
         id="path12"
         d="m 3.7384062,-6.1160625 c 0.058594,-0.234375 0.082031,-0.3398438 0.28125,-0.3632813 0.082031,-0.011719 0.3984375,-0.011719 0.5976563,-0.011719 0.7148437,0 1.8164062,0 1.8164062,0.984375 0,0.3398437 -0.1523437,1.0195312 -0.5507812,1.4179687 C 5.625125,-3.8309063 5.0977812,-3.5145 4.2071562,-3.5145 H 3.093875 Z m 1.4296875,2.7304687 C 6.1759062,-3.60825 7.3595,-4.2996563 7.3595,-5.3074688 c 0,-0.8554687 -0.890625,-1.5 -2.203125,-1.5 H 2.3204375 c -0.1992188,0 -0.2929688,0 -0.2929688,0.1992188 0,0.1171875 0.09375,0.1171875 0.28125,0.1171875 0.023437,0 0.2109375,0 0.3867188,0.011719 0.1757812,0.023437 0.2578125,0.035156 0.2578125,0.1640625 0,0.035156 0,0.070312 -0.035156,0.1875 l -1.3359375,5.3554688 c -0.09375,0.38671875 -0.1171875,0.46875 -0.9023437,0.46875 -0.17578125,0 -0.26953125,0 -0.26953125,0.19921875 0,0.10546875 0.1171875,0.10546875 0.140625,0.10546875 0.28125,0 0.97265625,-0.03515625 1.25390625,-0.03515625 0.28125,0 0.984375,0.03515625 1.265625,0.03515625 0.082031,0 0.1992187,0 0.1992187,-0.19921875 0,-0.10546875 -0.09375,-0.10546875 -0.28125,-0.10546875 -0.3632812,0 -0.6445312,0 -0.6445312,-0.1875 0,-0.0585937 0.011719,-0.10546875 0.023437,-0.1640625 l 0.65625,-2.6367188 H 4.218875 c 0.9023437,0 1.078125,0.5507813 1.078125,0.9023438 0,0.1523437 -0.082031,0.4570312 -0.140625,0.6914062 -0.070312,0.2695313 -0.1523438,0.6445313 -0.1523438,0.84375005 0,1.078125 1.1953125,1.078125 1.3242188,1.078125 0.84375,0 1.1953125,-1.0078125 1.1953125,-1.1484375 0,-0.11718755 -0.1171875,-0.11718755 -0.1171875,-0.11718755 -0.09375,0 -0.1171875,0.0703126 -0.1289063,0.14062505 C 7.0196562,-0.1629375 6.5977812,0.001125 6.3634062,0.001125 c -0.328125,0 -0.3984375,-0.22265625 -0.3984375,-0.609375 0,-0.3046875 0.058594,-0.8203125 0.1054688,-1.1367188 0.011719,-0.140625 0.035156,-0.328125 0.035156,-0.46875 0,-0.7617187 -0.6679687,-1.078125 -0.9374998,-1.171875 z m 0,0"
         style="fill:#000000;fill-opacity:1;fill-rule:nonzero;stroke:none" />
      <path
         id="path13"
         d="m 17.253055,-3.2566875 c 0.152343,0 0.339843,0 0.339843,-0.1992188 0,-0.1992187 -0.1875,-0.1992187 -0.328125,-0.1992187 H 11.29993 c -0.140625,0 -0.328125,0 -0.328125,0.1992187 0,0.1992188 0.1875,0.1992188 0.339843,0.1992188 z m 0.01172,1.9335937 c 0.140625,0 0.328125,0 0.328125,-0.1992187 0,-0.1992188 -0.1875,-0.1992188 -0.339843,-0.1992188 H 11.31165 c -0.152343,0 -0.339843,0 -0.339843,0.1992188 0,0.1992187 0.1875,0.1992187 0.328125,0.1992187 z M 25.005008,-2.29575 h 2.777344 c 0.140625,0 0.328125,0 0.328125,-0.1992188 0,-0.1992187 -0.1875,-0.1992187 -0.328125,-0.1992187 H 25.005008 V -5.48325 c 0,-0.1289063 0,-0.328125 -0.199219,-0.328125 -0.199219,0 -0.199219,0.1992187 -0.199219,0.328125 v 2.7890625 h -2.789062 c -0.140625,0 -0.328125,0 -0.328125,0.1992187 0,0.1992188 0.1875,0.1992188 0.328125,0.1992188 h 2.789062 v 2.80078125 c 0,0.12890625 0,0.328125 0.199219,0.328125 0.199219,0 0.199219,-0.19921875 0.199219,-0.328125 z m 6.600586,-4.078125 c 0,-0.234375 0,-0.2578125 -0.234375,-0.2578125 -0.609375,0.6328125 -1.488282,0.6328125 -1.804688,0.6328125 v 0.3164062 c 0.199219,0 0.785156,0 1.300781,-0.2578125 v 5.15625005 c 0,0.3515625 -0.03516,0.48046875 -0.925781,0.48046875 H 29.625125 V 0.001125 c 0.351562,-0.03515625 1.207031,-0.03515625 1.605469,-0.03515625 0.398437,0 1.265625,0 1.617187,0.03515625 v -0.3046875 h -0.316406 c -0.902344,0 -0.925781,-0.1171875 -0.925781,-0.48046875 z m 0,0"
         style="fill:#000000;fill-opacity:1;fill-rule:nonzero;stroke:none" />
    </g>
    <g
       id="g13"
       aria-label="0.1"
       transform="matrix(1.3333333,0,0,1.3333333,48.849333,88.893333)">
      <path
         id="path14"
         d="m 4.2409297,-2.8701953 c 0,-0.5976563 -0.023437,-1.3710938 -0.3398438,-2.0390625 -0.3984375,-0.84375 -1.078125,-1.0546875 -1.59375,-1.0546875 -0.5390625,0 -1.21875,0.2109375 -1.61718746,1.0664062 -0.29296875,0.6210938 -0.328125,1.3476563 -0.328125,2.0273438 0,0.5859375 0.0117188,1.453125 0.3984375,2.16796874 0.42187496,0.76171875 1.12499996,0.90234375 1.53515626,0.90234375 0.5859375,0 1.2421875,-0.2578125 1.6171875,-1.078125 0.2695312,-0.59765629 0.328125,-1.27734379 0.328125,-1.99218749 z m -1.9335938,2.84765624 c -0.2695312,0 -0.9140625,-0.12890625 -1.0898437,-1.13671874 -0.09375,-0.5390625 -0.09375,-1.3007813 -0.09375,-1.8164063 0,-0.609375 0,-1.3125 0.1171875,-1.8164062 0.1757812,-0.796875 0.75,-0.9492188 1.0546875,-0.9492188 0.3398437,0 0.9023437,0.1757813 1.078125,1.0078125 0.09375,0.4921875 0.09375,1.1953125 0.09375,1.7578125 0,0.5507813 0,1.3125 -0.09375,1.8398438 -0.1875,1.01953124 -0.84375,1.11328124 -1.0664063,1.11328124 z m 0,0"
         style="fill:#000000;fill-opacity:1;fill-rule:nonzero;stroke:none" />
      <path
         id="path15"
         d="m 6.3649531,-0.47957031 c 0,-0.2578125 -0.2109375,-0.4921875 -0.4804687,-0.4921875 -0.28125,0 -0.4921875,0.234375 -0.4921875,0.4921875 0,0.2578125 0.2109375,0.4804687475 0.4921875,0.4804687475 0.2695312,0 0.4804687,-0.2226562475 0.4804687,-0.4804687475 z m 0,0"
         style="fill:#000000;fill-opacity:1;fill-rule:nonzero;stroke:none" />
      <path
         id="path16"
         d="m 9.8981563,-5.7295703 c 0,-0.2226563 -0.011719,-0.234375 -0.234375,-0.234375 -0.5625,0.5625 -1.3828125,0.5625 -1.6640626,0.5625 v 0.28125 c 0.1757813,0 0.7148438,0 1.2070313,-0.234375 v 4.64062499 c 0,0.328125 -0.035156,0.43359375 -0.8671875,0.43359375 h -0.28125 V 8.984375e-4 C 8.3747188,-0.02253906 9.1715938,-0.02253906 9.5465938,-0.02253906 c 0.3632812,0 1.1718752,0 1.4882812,0.0234374975 V -0.28035156 h -0.28125 c -0.8320312,0 -0.8554687,-0.10546875 -0.8554687,-0.43359375 z m 0,0"
         style="fill:#000000;fill-opacity:1;fill-rule:nonzero;stroke:none" />
    </g>
    <path
       id="path17"
       d="M -39.46555,-2.1918 C -39.46555,-25.64229 0,-32.37743 0,-17.2317"
       style="fill:none;stroke:#000000;stroke-width:0.3985;stroke-linecap:butt;stroke-linejoin:miter;stroke-miterlimit:10;stroke-dasharray:none;stroke-opacity:1"
       transform="matrix(1.3333333,0,0,-1.3333333,96.765333,97.637333)" />
    <path
       id="path18"
       d="M 7.48325,0 C 6.56427,0.22145 2.52473,1.47641 0,2.84209 V -2.84209 C 2.52473,-1.47641 6.56427,-0.22145 7.48325,0 Z"
       style="fill:#000000;fill-opacity:1;fill-rule:nonzero;stroke:#000000;stroke-width:0.3985;stroke-linecap:butt;stroke-linejoin:miter;stroke-miterlimit:10;stroke-dasharray:none;stroke-opacity:1"
       transform="matrix(0,-1.3333333,-1.3333333,0,96.765333,120.61293)" />
    <g
       id="g18"
       aria-label="0.9"
       transform="matrix(1.3333333,0,0,1.3333333,48.853333,113.888)">
      <path
         id="path19"
         d="m 4.2408594,-2.8720547 c 0,-0.5976562 -0.023437,-1.3710937 -0.3398438,-2.0390625 -0.3984375,-0.84375 -1.078125,-1.0546875 -1.59375,-1.0546875 -0.5390625,0 -1.21875,0.2109375 -1.61718748,1.0664063 -0.29296875,0.6210937 -0.328125,1.3476562 -0.328125,2.0273437 0,0.5859375 0.0117188,1.453125 0.3984375,2.16796876 0.42187498,0.76171875 1.12499998,0.90234375 1.53515628,0.90234375 0.5859375,0 1.2421875,-0.2578125 1.6171875,-1.078125 0.2695312,-0.59765621 0.328125,-1.27734371 0.328125,-1.99218751 z m -1.9335938,2.84765626 c -0.2695312,0 -0.9140625,-0.12890625 -1.0898437,-1.13671876 -0.09375,-0.5390625 -0.09375,-1.3007812 -0.09375,-1.8164062 0,-0.609375 0,-1.3125 0.1171875,-1.8164063 0.1757812,-0.796875 0.75,-0.9492187 1.0546875,-0.9492187 0.3398437,0 0.9023437,0.1757812 1.078125,1.0078125 0.09375,0.4921875 0.09375,1.1953125 0.09375,1.7578125 0,0.5507812 0,1.3125 -0.09375,1.8398437 -0.1875,1.01953126 -0.84375,1.11328126 -1.0664063,1.11328126 z m 0,0"
         style="fill:#000000;fill-opacity:1;fill-rule:nonzero;stroke:none" />
      <path
         id="path20"
         d="m 6.3648828,-0.48142969 c 0,-0.2578125 -0.2109375,-0.4921875 -0.4804687,-0.4921875 -0.28125,0 -0.4921875,0.234375 -0.4921875,0.4921875 0,0.2578125 0.2109375,0.4804687525 0.4921875,0.4804687525 0.2695312,0 0.4804687,-0.2226562525 0.4804687,-0.4804687525 z m 0,0"
         style="fill:#000000;fill-opacity:1;fill-rule:nonzero;stroke:none" />
      <path
         id="path21"
         d="m 10.566055,-2.8251797 v 0.1992188 c 0,2.19140621 -0.9960941,2.56640621 -1.5117191,2.56640621 -0.1992187,0 -0.65625,-0.03515625 -0.890625,-0.328125 h 0.035156 c 0.070312,0.0234375 0.421875,-0.046875 0.421875,-0.41015625 0,-0.23437496 -0.1640625,-0.41015626 -0.4101563,-0.41015626 -0.2578125,0 -0.421875,0.1523438 -0.421875,0.42187501 0,0.59765625 0.46875,0.984375 1.2773438,0.984375 1.1601566,0 2.3203126,-1.18359375 2.3203126,-3.15234371 0,-2.4257813 -1.078125,-3.0117188 -1.8867189,-3.0117188 -1.03125,0 -1.9453125,0.8320313 -1.9453125,2.0039063 0,1.1367187 0.8203125,1.9921875 1.8398438,1.9921875 0.6562506,0 1.0078126,-0.46875 1.1718756,-0.8554688 z m -1.1601566,0.6328125 c -0.140625,0 -0.5742187,0 -0.8671875,-0.5507812 -0.1640625,-0.3398438 -0.1640625,-0.7851563 -0.1640625,-1.2070313 0,-0.4335937 0,-0.8789062 0.1875,-1.21875 0.2695313,-0.4570312 0.609375,-0.5742187 0.9375,-0.5742187 0.6093746,0 0.8554686,0.609375 0.8906246,0.703125 0.117188,0.328125 0.152344,0.8789062 0.152344,1.265625 0,0.65625 -0.292969,1.5820312 -1.1367186,1.5820312 z m 0,0"
         style="fill:#000000;fill-opacity:1;fill-rule:nonzero;stroke:none" />
    </g>
    <g
       id="g21"
       aria-label="R=0"
       transform="matrix(1.3333333,0,0,1.3333333,53.184,142.27067)">
      <path
         id="path22"
         d="m 3.7379766,-6.1180391 c 0.058594,-0.234375 0.082031,-0.3398437 0.28125,-0.3632812 0.082031,-0.011719 0.3984375,-0.011719 0.5976562,-0.011719 0.7148438,0 1.8164063,0 1.8164063,0.984375 0,0.3398438 -0.1523438,1.0195313 -0.5507813,1.4179688 -0.2578125,0.2578125 -0.7851562,0.5742187 -1.6757812,0.5742187 H 3.0934453 Z m 1.4296875,2.7304688 c 1.0078125,-0.2226563 2.1914062,-0.9140625 2.1914062,-1.921875 0,-0.8554688 -0.890625,-1.5 -2.203125,-1.5 H 2.3200078 c -0.1992187,0 -0.2929687,0 -0.2929687,0.1992187 0,0.1171875 0.09375,0.1171875 0.28125,0.1171875 0.023437,0 0.2109375,0 0.3867187,0.011719 0.1757813,0.023437 0.2578125,0.035156 0.2578125,0.1640625 0,0.035156 0,0.070312 -0.035156,0.1875 l -1.3359375,5.35546874 c -0.09375,0.38671875 -0.1171875,0.46875 -0.90234379,0.46875 -0.17578125,0 -0.26953125,0 -0.26953125,0.19921875 0,0.1054687475 0.1171875,0.1054687475 0.140625,0.1054687475 0.28125,0 0.97265624,-0.0351562475 1.25390624,-0.0351562475 0.28125,0 0.984375,0.0351562475 1.265625,0.0351562475 0.082031,0 0.1992188,0 0.1992188,-0.1992187475 0,-0.10546875 -0.09375,-0.10546875 -0.28125,-0.10546875 -0.3632813,0 -0.6445313,0 -0.6445313,-0.1875 0,-0.0585938 0.011719,-0.10546875 0.023437,-0.1640625 l 0.65625,-2.63671874 H 4.218445 c 0.9023438,0 1.078125,0.5507812 1.078125,0.9023437 0,0.1523438 -0.082031,0.4570313 -0.140625,0.6914063 -0.070312,0.2695312 -0.1523437,0.6445312 -0.1523437,0.84374999 0,1.078125 1.1953125,1.078125 1.3242187,1.078125 0.84375,0 1.1953125,-1.0078125 1.1953125,-1.1484375 0,-0.11718749 -0.1171875,-0.11718749 -0.1171875,-0.11718749 -0.09375,0 -0.1171875,0.0703125 -0.1289062,0.14062499 -0.2578125,0.73828125 -0.6796875,0.9023437475 -0.9140625,0.9023437475 -0.328125,0 -0.3984375,-0.2226562475 -0.3984375,-0.6093749975 0,-0.3046875 0.058594,-0.82031254 0.1054687,-1.13671874 0.011719,-0.140625 0.035156,-0.328125 0.035156,-0.46875 0,-0.7617188 -0.6679688,-1.078125 -0.9374994,-1.1718752 z m 0,0"
         style="fill:#000000;fill-opacity:1;fill-rule:nonzero;stroke:none" />
      <path
         id="path23"
         d="m 17.252625,-3.2586641 c 0.152344,0 0.339844,0 0.339844,-0.1992187 0,-0.1992188 -0.1875,-0.1992188 -0.328125,-0.1992188 H 11.2995 c -0.140625,0 -0.328125,0 -0.328125,0.1992188 0,0.1992187 0.1875,0.1992187 0.339844,0.1992187 z m 0.01172,1.9335938 c 0.140625,0 0.328125,0 0.328125,-0.1992188 0,-0.1992187 -0.1875,-0.1992187 -0.339844,-0.1992187 H 11.31122 c -0.152344,0 -0.339844,0 -0.339844,0.1992187 0,0.1992188 0.1875,0.1992188 0.328125,0.1992188 z m 8.24414,-1.8632813 c 0,-0.796875 -0.04687,-1.59375 -0.398437,-2.3320312 -0.457031,-0.9609375 -1.277344,-1.1132813 -1.6875,-1.1132813 -0.597656,0 -1.335938,0.2578125 -1.734375,1.1835938 -0.328125,0.6914062 -0.375,1.4648437 -0.375,2.2617187 0,0.75 0.04687,1.640625 0.445312,2.40234379 0.433594,0.80859375 1.160157,1.0078125 1.652344,1.0078125 0.539063,0 1.289063,-0.2109375 1.734375,-1.16015625 0.316406,-0.69140624 0.363281,-1.46484374 0.363281,-2.25000004 z m -2.097656,3.1875000375 c -0.386719,0 -0.984375,-0.2460937475 -1.160156,-1.2070312375 -0.105469,-0.5976563 -0.105469,-1.5117188 -0.105469,-2.0976563 0,-0.6445312 0,-1.3007812 0.08203,-1.8398437 0.1875,-1.1835938 0.925782,-1.265625 1.183594,-1.265625 0.328125,0 0.984375,0.1757812 1.171875,1.1601562 0.09375,0.5625 0.09375,1.3125 0.09375,1.9453125 0,0.75 0,1.4179688 -0.105469,2.0625 -0.152343,0.93750004 -0.714843,1.2421875375 -1.160156,1.2421875375 z m 0,0"
         style="fill:#000000;fill-opacity:1;fill-rule:nonzero;stroke:none" />
    </g>
    <path
       id="path24"
       d="M 8.92693,0 H 37.27374"
       style="fill:none;stroke:#000000;stroke-width:0.3985;stroke-linecap:butt;stroke-linejoin:miter;stroke-miterlimit:10;stroke-dasharray:none;stroke-opacity:1"
       transform="matrix(1.3333333,0,0,-1.3333333,96.765333,97.637333)" />
    <path
       id="path25"
       d="M 41.65735,0 H 61.69939"
       style="fill:none;stroke:#000000;stroke-width:0.3985;stroke-linecap:butt;stroke-linejoin:miter;stroke-miterlimit:10;stroke-dasharray:none;stroke-opacity:1"
       transform="matrix(1.3333333,0,0,-1.3333333,96.765333,97.637333)" />
    <path
       id="path26"
       d="M 7.48325,0 C 6.56427,0.22145 2.52473,1.47641 0,2.84209 V -2.84209 C 2.52473,-1.47641 6.56427,-0.22145 7.48325,0 Z"
       style="fill:#000000;fill-opacity:1;fill-rule:nonzero;stroke:#000000;stroke-width:0.3985;stroke-linecap:butt;stroke-linejoin:miter;stroke-miterlimit:10;stroke-dasharray:none;stroke-opacity:1"
       transform="matrix(1.3333333,0,0,-1.3333333,179.03119,97.637333)" />
    <g
       id="g26"
       aria-label="R=0"
       transform="matrix(1.3333333,0,0,1.3333333,153.93333,111.408)">
      <path
         id="path27"
         d="m 3.7384766,-6.1185 c 0.058594,-0.234375 0.082031,-0.3398438 0.28125,-0.3632813 C 4.1017578,-6.4935 4.4181641,-6.4935 4.6173828,-6.4935 c 0.7148438,0 1.8164063,0 1.8164063,0.984375 0,0.3398437 -0.1523438,1.0195312 -0.5507813,1.4179687 -0.2578125,0.2578125 -0.7851562,0.5742188 -1.6757812,0.5742188 H 3.0939453 Z m 1.4296875,2.7304687 c 1.0078125,-0.2226562 2.1914062,-0.9140625 2.1914062,-1.921875 0,-0.8554687 -0.890625,-1.5 -2.203125,-1.5 H 2.3205078 c -0.1992187,0 -0.2929687,0 -0.2929687,0.1992188 0,0.1171875 0.09375,0.1171875 0.28125,0.1171875 0.023437,0 0.2109375,0 0.3867187,0.011719 0.1757813,0.023437 0.2578125,0.035156 0.2578125,0.1640625 0,0.035156 0,0.070312 -0.035156,0.1875 L 1.5822266,-0.77475 c -0.09375,0.38671875 -0.1171875,0.46875 -0.90234379,0.46875 -0.17578125,0 -0.26953125,0 -0.26953125,0.19921875 0,0.10546875 0.1171875,0.10546875 0.140625,0.10546875 0.28125,0 0.97265624,-0.03515625 1.25390624,-0.03515625 0.28125,0 0.984375,0.03515625 1.265625,0.03515625 0.082031,0 0.1992188,0 0.1992188,-0.19921875 C 3.2697266,-0.306 3.1759766,-0.306 2.9884766,-0.306 c -0.3632813,0 -0.6445313,0 -0.6445313,-0.1875 0,-0.0585938 0.011719,-0.10546875 0.023437,-0.1640625 l 0.65625,-2.6367188 h 1.1953125 c 0.9023438,0 1.078125,0.5507813 1.078125,0.9023438 0,0.1523437 -0.082031,0.4570312 -0.140625,0.6914062 C 5.0861328,-1.431 5.0041016,-1.056 5.0041016,-0.85678125 c 0,1.078125 1.1953125,1.078125 1.3242187,1.078125 0.84375,0 1.1953125,-1.0078125 1.1953125,-1.1484375 0,-0.11718755 -0.1171875,-0.11718755 -0.1171875,-0.11718755 -0.09375,0 -0.1171875,0.0703125 -0.1289062,0.14062505 -0.2578125,0.73828125 -0.6796875,0.90234375 -0.9140625,0.90234375 -0.328125,0 -0.3984375,-0.22265625 -0.3984375,-0.609375 0,-0.3046875 0.058594,-0.8203125 0.1054687,-1.1367188 0.011719,-0.140625 0.035156,-0.328125 0.035156,-0.46875 0,-0.7617187 -0.6679688,-1.078125 -0.9374997,-1.171875 z m 0,0"
         style="fill:#000000;fill-opacity:1;fill-rule:nonzero;stroke:none" />
      <path
         id="path28"
         d="m 17.253125,-3.259125 c 0.152344,0 0.339844,0 0.339844,-0.1992188 0,-0.1992187 -0.1875,-0.1992187 -0.328125,-0.1992187 H 11.3 c -0.140625,0 -0.328125,0 -0.328125,0.1992187 0,0.1992188 0.1875,0.1992188 0.339844,0.1992188 z m 0.01172,1.9335937 c 0.140625,0 0.328125,0 0.328125,-0.1992187 0,-0.1992188 -0.1875,-0.1992188 -0.339844,-0.1992188 H 11.31172 c -0.152344,0 -0.339844,0 -0.339844,0.1992188 0,0.1992187 0.1875,0.1992187 0.328125,0.1992187 z m 8.24414,-1.8632812 c 0,-0.796875 -0.04687,-1.59375 -0.398437,-2.3320313 -0.457031,-0.9609375 -1.277344,-1.1132812 -1.6875,-1.1132812 -0.597656,0 -1.335938,0.2578125 -1.734375,1.1835937 -0.328125,0.6914063 -0.375,1.4648438 -0.375,2.2617188 0,0.75 0.04687,1.640625 0.445312,2.40234375 0.433594,0.80859375 1.160157,1.0078125 1.652344,1.0078125 0.539063,0 1.289063,-0.2109375 1.734375,-1.16015625 0.316406,-0.6914063 0.363281,-1.4648438 0.363281,-2.25 z m -2.097656,3.1875 c -0.386719,0 -0.984375,-0.24609375 -1.160156,-1.2070313 C 22.145703,-1.806 22.145703,-2.7200625 22.145703,-3.306 c 0,-0.6445313 0,-1.3007813 0.08203,-1.8398438 0.1875,-1.1835937 0.925782,-1.265625 1.183594,-1.265625 0.328125,0 0.984375,0.1757813 1.171875,1.1601563 0.09375,0.5625 0.09375,1.3125 0.09375,1.9453125 0,0.75 0,1.4179687 -0.105469,2.0625 -0.152343,0.9375 -0.714843,1.2421875 -1.160156,1.2421875 z m 0,0"
         style="fill:#000000;fill-opacity:1;fill-rule:nonzero;stroke:none" />
    </g>
  </g>
</svg>
