<?xml version="1.0" encoding="UTF-8" standalone="no"?>
<!-- Created with Inkscape (http://www.inkscape.org/) -->

<svg
   version="1.1"
   id="svg1"
   width="39.112"
   height="284.51334"
   viewBox="0 0 39.112 284.51334"
   xmlns="http://www.w3.org/2000/svg"
   xmlns:svg="http://www.w3.org/2000/svg">
  <defs
     id="defs1" />
  <g
     id="g1">
    <path
       id="path1"
       d="M -14.66704,-201.4324 V 11.95532 H 14.66704 V -201.4324 Z"
       style="fill:#f2f2f2;fill-opacity:1;fill-rule:nonzero;stroke:none"
       transform="matrix(1.3333333,0,0,-1.3333333,19.556,15.94)" />
    <path
       id="path2"
       d="M 1.99255,0 C 1.99255,1.10046 1.10046,1.99255 0,1.99255 -1.10046,1.99255 -1.99255,1.10046 -1.99255,0 c 0,-1.10046 0.89209,-1.99255 1.99255,-1.99255 1.10046,0 1.99255,0.89209 1.99255,1.99255 z"
       style="fill:#000000;fill-opacity:1;fill-rule:nonzero;stroke:none"
       transform="matrix(1.3333333,0,0,-1.3333333,19.556,15.94)" />
    <path
       id="path3"
       d="m 3.9851,-34.72296 c 0,2.20094 -1.78417,3.98511 -3.9851,3.98511 -2.20093,0 -3.9851,-1.78417 -3.9851,-3.98511 0,-2.20094 1.78417,-3.98511 3.9851,-3.98511 2.20093,0 3.9851,1.78417 3.9851,3.98511 z"
       style="fill:none;stroke:#000000;stroke-width:0.3985;stroke-linecap:butt;stroke-linejoin:miter;stroke-miterlimit:10;stroke-dasharray:none;stroke-opacity:1"
       transform="matrix(1.3333333,0,0,-1.3333333,19.556,15.94)" />
    <path
       id="path4"
       d="m 1.99255,-69.44594 c 0,1.10047 -0.89209,1.99256 -1.99255,1.99256 -1.10046,0 -1.99255,-0.89209 -1.99255,-1.99256 0,-1.10048 0.89209,-1.99255 1.99255,-1.99255 1.10046,0 1.99255,0.89207 1.99255,1.99255 z"
       style="fill:#000000;fill-opacity:1;fill-rule:nonzero;stroke:none"
       transform="matrix(1.3333333,0,0,-1.3333333,19.556,15.94)" />
    <path
       id="path5"
       d="m 1.9103594,-0.52703906 c 0,-0.29296875 -0.234375,-0.52734374 -0.5273438,-0.52734374 -0.28125,0 -0.52734372,0.23437499 -0.52734372,0.52734374 0,0.29296875 0.24609372,0.5273437475 0.52734372,0.5273437475 0.2929688,0 0.5273438,-0.2343749975 0.5273438,-0.5273437475 z m 0,3.98437496 c 0,-0.2929687 -0.234375,-0.5273437 -0.5273438,-0.5273437 -0.28125,0 -0.52734372,0.234375 -0.52734372,0.5273437 0,0.2929688 0.24609372,0.5273438 0.52734372,0.5273438 0.2929688,0 0.5273438,-0.234375 0.5273438,-0.5273438 z m 0,3.984375 c 0,-0.2929687 -0.234375,-0.5273437 -0.5273438,-0.5273437 -0.28125,0 -0.52734372,0.234375 -0.52734372,0.5273437 0,0.2929688 0.24609372,0.5273438 0.52734372,0.5273438 0.2929688,0 0.5273438,-0.234375 0.5273438,-0.5273438 z m 0,0"
       style="fill:#000000;fill-opacity:1;fill-rule:nonzero;stroke:none"
       aria-label=".&#10;.&#10;."
       transform="matrix(1.3333333,0,0,1.3333333,17.710667,163.316)" />
    <path
       id="path6"
       d="m 1.99255,-152.5623 c 0,1.10046 -0.89209,1.99255 -1.99255,1.99255 -1.10046,0 -1.99255,-0.89209 -1.99255,-1.99255 0,-1.10048 0.89209,-1.99256 1.99255,-1.99256 1.10046,0 1.99255,0.89208 1.99255,1.99256 z"
       style="fill:#000000;fill-opacity:1;fill-rule:nonzero;stroke:none"
       transform="matrix(1.3333333,0,0,-1.3333333,19.556,15.94)" />
    <path
       id="path7"
       d="m -3.9851,-191.27039 h 7.97021 v 7.97021 H -3.9851 Z"
       style="fill:#808080;fill-opacity:1;fill-rule:nonzero;stroke:#000000;stroke-width:0.3985;stroke-linecap:butt;stroke-linejoin:miter;stroke-miterlimit:10;stroke-dasharray:none;stroke-opacity:1"
       transform="matrix(1.3333333,0,0,-1.3333333,19.556,15.94)" />
    <path
       id="path8"
       d="M 0,-2.1918 V -22.23383"
       style="fill:none;stroke:#000000;stroke-width:0.3985;stroke-linecap:butt;stroke-linejoin:miter;stroke-miterlimit:10;stroke-dasharray:none;stroke-opacity:1"
       transform="matrix(1.3333333,0,0,-1.3333333,19.556,15.94)" />
    <path
       id="path9"
       d="M 7.48325,0 C 6.56427,0.22145 2.52473,1.47641 0,2.84209 V -2.84209 C 2.52473,-1.47641 6.56427,-0.22145 7.48325,0 Z"
       style="fill:#000000;fill-opacity:1;fill-rule:nonzero;stroke:#000000;stroke-width:0.3985;stroke-linecap:butt;stroke-linejoin:miter;stroke-miterlimit:10;stroke-dasharray:none;stroke-opacity:1"
       transform="matrix(0,1.3333333,1.3333333,0,19.556,45.585107)" />
    <path
       id="path10"
       d="M 0,-38.90733 V -58.94936"
       style="fill:none;stroke:#000000;stroke-width:0.3985;stroke-linecap:butt;stroke-linejoin:miter;stroke-miterlimit:10;stroke-dasharray:none;stroke-opacity:1"
       transform="matrix(1.3333333,0,0,-1.3333333,19.556,15.94)" />
    <path
       id="path11"
       d="M 7.48325,0 C 6.56427,0.22145 2.52473,1.47641 0,2.84209 V -2.84209 C 2.52473,-1.47641 6.56427,-0.22145 7.48325,0 Z"
       style="fill:#000000;fill-opacity:1;fill-rule:nonzero;stroke:#000000;stroke-width:0.3985;stroke-linecap:butt;stroke-linejoin:miter;stroke-miterlimit:10;stroke-dasharray:none;stroke-opacity:1"
       transform="matrix(0,1.3333333,1.3333333,0,19.556,94.539147)" />
    <path
       id="path12"
       d="M 0,-71.63776 V -91.67978"
       style="fill:none;stroke:#000000;stroke-width:0.3985;stroke-linecap:butt;stroke-linejoin:miter;stroke-miterlimit:10;stroke-dasharray:none;stroke-opacity:1"
       transform="matrix(1.3333333,0,0,-1.3333333,19.556,15.94)" />
    <path
       id="path13"
       d="M 7.48325,0 C 6.56427,0.22145 2.52473,1.47641 0,2.84209 V -2.84209 C 2.52473,-1.47641 6.56427,-0.22145 7.48325,0 Z"
       style="fill:#000000;fill-opacity:1;fill-rule:nonzero;stroke:#000000;stroke-width:0.3985;stroke-linecap:butt;stroke-linejoin:miter;stroke-miterlimit:10;stroke-dasharray:none;stroke-opacity:1"
       transform="matrix(0,1.3333333,1.3333333,0,19.556,138.17971)" />
    <path
       id="path14"
       d="m 0,-122.02368 v -20.04204"
       style="fill:none;stroke:#000000;stroke-width:0.3985;stroke-linecap:butt;stroke-linejoin:miter;stroke-miterlimit:10;stroke-dasharray:none;stroke-opacity:1"
       transform="matrix(1.3333333,0,0,-1.3333333,19.556,15.94)" />
    <path
       id="path15"
       d="M 7.48325,0 C 6.56427,0.22145 2.52473,1.47641 0,2.84209 V -2.84209 C 2.52473,-1.47641 6.56427,-0.22145 7.48325,0 Z"
       style="fill:#000000;fill-opacity:1;fill-rule:nonzero;stroke:#000000;stroke-width:0.3985;stroke-linecap:butt;stroke-linejoin:miter;stroke-miterlimit:10;stroke-dasharray:none;stroke-opacity:1"
       transform="matrix(0,1.3333333,1.3333333,0,19.556,205.36096)" />
    <path
       id="path16"
       d="m 0,-154.7541 v -20.04204"
       style="fill:none;stroke:#000000;stroke-width:0.3985;stroke-linecap:butt;stroke-linejoin:miter;stroke-miterlimit:10;stroke-dasharray:none;stroke-opacity:1"
       transform="matrix(1.3333333,0,0,-1.3333333,19.556,15.94)" />
    <path
       id="path17"
       d="M 7.48325,0 C 6.56427,0.22145 2.52473,1.47641 0,2.84209 V -2.84209 C 2.52473,-1.47641 6.56427,-0.22145 7.48325,0 Z"
       style="fill:#000000;fill-opacity:1;fill-rule:nonzero;stroke:#000000;stroke-width:0.3985;stroke-linecap:butt;stroke-linejoin:miter;stroke-miterlimit:10;stroke-dasharray:none;stroke-opacity:1"
       transform="matrix(0,1.3333333,1.3333333,0,19.556,249.00152)" />
  </g>
</svg>
