<?xml version="1.0" encoding="UTF-8" standalone="no"?>
<!-- Created with Inkscape (http://www.inkscape.org/) -->

<svg
   version="1.1"
   id="svg1"
   width="471.35733"
   height="62.68"
   viewBox="0 0 471.35733 62.68"
   xmlns="http://www.w3.org/2000/svg"
   xmlns:svg="http://www.w3.org/2000/svg">
  <defs
     id="defs1" />
  <g
     id="g1">
    <path
       id="path1"
       d="m -19.85075,-20.96164 v 47.01021 h 353.5225 v -47.01021 z"
       style="fill:#ccccff;fill-opacity:1;fill-rule:nonzero;stroke:none"
       transform="matrix(1.3333333,0,0,-1.3333333,26.466667,34.732)" />
    <path
       id="path2"
       d="M -9.48947,-10.60036 H 9.48949 V 10.60037 H -9.48947 Z"
       style="fill:#b3b3b3;fill-opacity:1;fill-rule:nonzero;stroke:#000000;stroke-width:0.79701;stroke-linecap:butt;stroke-linejoin:miter;stroke-miterlimit:10;stroke-dasharray:none;stroke-opacity:1"
       transform="matrix(1.3333333,0,0,-1.3333333,26.466667,34.732)" />
    <path
       id="path3"
       d="m 6.4217422,-4.5938516 c 0,-1.1835937 -0.070312,-2.34375 -0.5859375,-3.4335937 -0.5859375,-1.1953125 -1.6171875,-1.5117188 -2.3203125,-1.5117188 -0.8320313,0 -1.8515625,0.421875 -2.3789063,1.6054688 -0.41015621,0.9023437 -0.55078121,1.7929687 -0.55078121,3.3398437 0,1.3945313 0.10546875,2.4375 0.62109371,3.4570313 0.5625,1.08984374 1.546875,1.44140624 2.296875,1.44140624 1.2421875,0 1.9570313,-0.75 2.3789063,-1.58203124 0.515625,-1.078125 0.5390625,-2.484375 0.5390625,-3.3164063 z M 3.5037734,0.01161719 c -0.46875,0 -1.3945312,-0.2578125 -1.6640625,-1.81640629 -0.1640625,-0.8671875 -0.1640625,-1.9570312 -0.1640625,-2.953125 0,-1.1835937 0,-2.2382812 0.234375,-3.09375 0.2460938,-0.9609375 0.9726563,-1.3945312 1.59375,-1.3945312 0.5390625,0 1.3710938,0.328125 1.640625,1.5585937 0.1875,0.8203125 0.1875,1.9453125 0.1875,2.9296875 0,0.9609375 0,2.0507813 -0.1523437,2.9179688 -0.2695313,1.58203124 -1.1835938,1.85156249 -1.6757813,1.85156249 z m 0,0"
       style="fill:#000000;fill-opacity:1;fill-rule:nonzero;stroke:none"
       aria-label="0"
       transform="matrix(1.3333333,0,0,1.3333333,21.785333,40.894667)" />
    <path
       id="path4"
       d="m 61.49525,0 c 0,4.74765 -3.84865,8.59628 -8.59629,8.59628 -4.74766,0 -8.5963,-3.84863 -8.5963,-8.59628 0,-4.74765 3.84864,-8.59628 8.5963,-8.59628 4.74764,0 8.59629,3.84863 8.59629,8.59628 z"
       style="fill:none;stroke:#000000;stroke-width:0.79701;stroke-linecap:butt;stroke-linejoin:miter;stroke-miterlimit:10;stroke-dasharray:none;stroke-opacity:1"
       transform="matrix(1.3333333,0,0,-1.3333333,26.466667,34.732)" />
    <path
       id="path5"
       d="m 4.1370234,-9.1993203 c 0,-0.328125 0,-0.3398438 -0.2929687,-0.3398438 -0.3398438,0.3867188 -1.0664063,0.9140625 -2.5429688,0.9140625 v 0.421875 c 0.3398438,0 1.0546875,0 1.8398438,-0.375 v 7.4765625 c 0,0.51562504 -0.046875,0.69140629 -1.3007813,0.69140629 H 1.3948359 v 0.4101562475 c 0.3867188,-0.0234374975 1.78125,-0.0234374975 2.25,-0.0234374975 0.46875,0 1.8515625,0 2.2382813,0.0234374975 V -0.41025781 H 5.4378047 c -1.265625,0 -1.3007813,-0.17578125 -1.3007813,-0.69140629 z m 0,0"
       style="fill:#000000;fill-opacity:1;fill-rule:nonzero;stroke:none"
       aria-label="1"
       transform="matrix(1.3333333,0,0,1.3333333,92.316,40.894667)" />
    <path
       id="path6"
       d="m 113.50102,0 c 0,4.74765 -3.84865,8.59628 -8.5963,8.59628 -4.74765,0 -8.59629,-3.84863 -8.59629,-8.59628 0,-4.74765 3.84864,-8.59628 8.59629,-8.59628 4.74765,0 8.5963,3.84863 8.5963,8.59628 z"
       style="fill:none;stroke:#000000;stroke-width:0.79701;stroke-linecap:butt;stroke-linejoin:miter;stroke-miterlimit:10;stroke-dasharray:none;stroke-opacity:1"
       transform="matrix(1.3333333,0,0,-1.3333333,26.466667,34.732)" />
    <path
       id="path7"
       d="M 6.3165938,-2.4141641 H 6.0001875 C 5.9533125,-2.1680703 5.836125,-1.3829141 5.6955,-1.1485391 5.5900313,-1.0196328 4.7814375,-1.0196328 4.3478438,-1.0196328 H 1.6876875 c 0.3867188,-0.328125 1.265625,-1.2421875 1.640625,-1.59375 2.1796875,-2.0039063 2.9882813,-2.7539063 2.9882813,-4.171875 0,-1.6523438 -1.3125,-2.7539063 -2.9765625,-2.7539063 -1.6640625,0 -2.6367188,1.4179688 -2.6367188,2.6484375 0,0.7382813 0.6328125,0.7382813 0.6796875,0.7382813 0.2929688,0 0.6679688,-0.2109375 0.6679688,-0.6796875 0,-0.3984375 -0.2695313,-0.6679688 -0.6679688,-0.6679688 -0.140625,0 -0.1640625,0 -0.2109375,0.011719 0.28125,-0.9726563 1.0546875,-1.6289063 1.9804688,-1.6289063 1.21875,0 1.96875,1.0078125 1.96875,2.3320313 0,1.21875 -0.703125,2.2851562 -1.5234375,3.1992187 l -2.8945313,3.24609379 v 0.3398437475 h 5.2382813 z m 0,0"
       style="fill:#000000;fill-opacity:1;fill-rule:nonzero;stroke:none"
       aria-label="2"
       transform="matrix(1.3333333,0,0,1.3333333,161.656,40.894667)" />
    <path
       id="path8"
       d="m 165.50679,0 c 0,4.74765 -3.84863,8.59628 -8.5963,8.59628 -4.74765,0 -8.59628,-3.84863 -8.59628,-8.59628 0,-4.74765 3.84863,-8.59628 8.59628,-8.59628 4.74767,0 8.5963,3.84863 8.5963,8.59628 z"
       style="fill:none;stroke:#000000;stroke-width:0.79701;stroke-linecap:butt;stroke-linejoin:miter;stroke-miterlimit:10;stroke-dasharray:none;stroke-opacity:1"
       transform="matrix(1.3333333,0,0,-1.3333333,26.466667,34.732)" />
    <path
       id="path9"
       d="m 2.6367891,-5.1446328 c -0.2460938,0.011719 -0.2929688,0.023437 -0.2929688,0.1523437 0,0.140625 0.070312,0.140625 0.328125,0.140625 h 0.65625 c 1.21875,0 1.7695313,1.0078125 1.7695313,2.3789063 0,1.88671874 -0.984375,2.39062499 -1.6875,2.39062499 -0.6796875,0 -1.8632813,-0.328125 -2.2734375,-1.27734379 0.4570312,0.070312 0.8671875,-0.1875 0.8671875,-0.703125 0,-0.421875 -0.2929688,-0.703125 -0.703125,-0.703125 -0.33984379,0 -0.71484379,0.1992188 -0.71484379,0.7382813 0,1.27734374 1.27734379,2.33203124 2.87109379,2.33203124 1.7109375,0 2.9648437,-1.31250004 2.9648437,-2.75390624 0,-1.3242188 -1.0546875,-2.3554688 -2.4375,-2.6015625 1.2539063,-0.3515625 2.0507813,-1.40625 2.0507813,-2.5195313 0,-1.1367187 -1.171875,-1.96875 -2.5664063,-1.96875 -1.4296875,0 -2.49609374,0.8789063 -2.49609374,1.921875 0,0.5742188 0.44531254,0.6914063 0.66796874,0.6914063 0.2929688,0 0.6445313,-0.2226563 0.6445313,-0.6445313 0,-0.4570312 -0.3515625,-0.6679687 -0.6679688,-0.6679687 -0.082031,0 -0.1054687,0 -0.1523437,0.023437 0.5390625,-0.984375 1.8867187,-0.984375 1.96875,-0.984375 0.46875,0 1.3945312,0.2226562 1.3945312,1.6289062 0,0.2695313 -0.035156,1.078125 -0.4570312,1.6875 -0.421875,0.6328125 -0.9140625,0.6796875 -1.3007813,0.6914063 z m 0,0"
       style="fill:#000000;fill-opacity:1;fill-rule:nonzero;stroke:none"
       aria-label="3"
       transform="matrix(1.3333333,0,0,1.3333333,230.996,40.894667)" />
    <path
       id="path10"
       d="m 217.51256,0 c 0,4.74765 -3.84863,8.59628 -8.5963,8.59628 -4.74765,0 -8.59628,-3.84863 -8.59628,-8.59628 0,-4.74765 3.84863,-8.59628 8.59628,-8.59628 4.74767,0 8.5963,3.84863 8.5963,8.59628 z"
       style="fill:none;stroke:#000000;stroke-width:0.79701;stroke-linecap:butt;stroke-linejoin:miter;stroke-miterlimit:10;stroke-dasharray:none;stroke-opacity:1"
       transform="matrix(1.3333333,0,0,-1.3333333,26.466667,34.732)" />
    <path
       id="path11"
       d="m 5.1796406,-9.3399453 c 0,-0.2695313 0,-0.3398438 -0.1992187,-0.3398438 -0.1171875,0 -0.1640625,0 -0.28125,0.1640625 l -4.31250003,6.703125 v 0.421875 H 4.1601094 v 1.3007813 c 0,0.52734374 -0.023437,0.67968749 -1.078125,0.67968749 h -0.28125 V -1.015625e-4 C 3.1288594,-0.02353906 4.2655781,-0.02353906 4.6640156,-0.02353906 c 0.3984375,0 1.546875,0 1.875,0.0234374975 V -0.41025781 h -0.28125 c -1.03125,0 -1.078125,-0.15234375 -1.078125,-0.67968749 v -1.3007813 h 1.4414063 v -0.421875 H 5.1796406 Z m -0.9492187,1.125 v 5.4023437 H 0.74995312 Z m 0,0"
       style="fill:#000000;fill-opacity:1;fill-rule:nonzero;stroke:none"
       aria-label="4"
       transform="matrix(1.3333333,0,0,1.3333333,300.336,40.894667)" />
    <path
       id="path12"
       d="m 269.51833,0 c 0,4.74765 -3.84863,8.59628 -8.59629,8.59628 -4.74766,0 -8.5963,-3.84863 -8.5963,-8.59628 0,-4.74765 3.84864,-8.59628 8.5963,-8.59628 4.74766,0 8.59629,3.84863 8.59629,8.59628 z"
       style="fill:none;stroke:#000000;stroke-width:0.79701;stroke-linecap:butt;stroke-linejoin:miter;stroke-miterlimit:10;stroke-dasharray:none;stroke-opacity:1"
       transform="matrix(1.3333333,0,0,-1.3333333,26.466667,34.732)" />
    <path
       id="path13"
       d="m 1.8396797,-8.2149453 c 0.609375,0.1992187 1.1132812,0.2109375 1.2773437,0.2109375 1.6171875,0 2.6484375,-1.1953125 2.6484375,-1.3945313 0,-0.058594 -0.023437,-0.1289062 -0.1171875,-0.1289062 -0.023437,0 -0.058594,0 -0.1875,0.058594 -0.796875,0.3515625 -1.4882812,0.3867188 -1.8632812,0.3867188 -0.9492188,0 -1.6171875,-0.28125 -1.8867188,-0.3984375 -0.1054687,-0.046875 -0.1289062,-0.046875 -0.1523437,-0.046875 -0.1054688,0 -0.1054688,0.09375 -0.1054688,0.3164062 v 4.265625 c 0,0.2578125 0,0.3398438 0.1640625,0.3398438 0.070312,0 0.09375,-0.011719 0.234375,-0.1875 0.3984375,-0.5859375 1.078125,-0.9257813 1.7929688,-0.9257813 0.7617187,0 1.1367187,0.703125 1.2421875,0.9375 0.2460937,0.5625 0.2578125,1.265625 0.2578125,1.8164063 0,0.5390625 0,1.359375 -0.3984375,2.00390624 -0.3164063,0.515625 -0.8789063,0.87890625 -1.5,0.87890625 -0.9492188,0 -1.8867188,-0.64453125 -2.1445313,-1.69921879 0.070312,0.035156 0.1640625,0.046875 0.234375,0.046875 0.2460938,0 0.6328125,-0.140625 0.6328125,-0.6328125 0,-0.3984375 -0.28125,-0.6328125 -0.6328125,-0.6328125 -0.2578125,0 -0.63281246,0.1289063 -0.63281246,0.6914063 0,1.21875 0.97265626,2.61328124 2.56640626,2.61328124 1.6171875,0 3.046875,-1.37109374 3.046875,-3.18750004 0,-1.7109375 -1.1484375,-3.1289062 -2.6601563,-3.1289062 -0.8203125,0 -1.453125,0.3632812 -1.8164062,0.7617187 z m 0,0"
       style="fill:#000000;fill-opacity:1;fill-rule:nonzero;stroke:none"
       aria-label="5"
       transform="matrix(1.3333333,0,0,1.3333333,369.676,40.894667)" />
    <path
       id="path14"
       d="m 304.33151,-10.60036 h 18.97896 v 21.20073 h -18.97896 z"
       style="fill:#b3b3b3;fill-opacity:1;fill-rule:nonzero;stroke:#000000;stroke-width:0.79701;stroke-linecap:butt;stroke-linejoin:miter;stroke-miterlimit:10;stroke-dasharray:none;stroke-opacity:1"
       transform="matrix(1.3333333,0,0,-1.3333333,26.466667,34.732)" />
    <path
       id="path15"
       d="m 1.7688047,-4.9922891 c 0,-3.6328125 1.7578125,-4.2070312 2.53125,-4.2070312 0.515625,0 1.03125,0.1640625 1.3125,0.5976562 -0.1757813,0 -0.7265625,0 -0.7265625,0.5859375 0,0.3164063 0.2226562,0.5859375 0.5976562,0.5859375 0.3515625,0 0.5976563,-0.2109375 0.5976563,-0.6328125 0,-0.75 -0.5507813,-1.4765625 -1.7929688,-1.4765625 -1.8046875,0 -3.70312496,1.8515625 -3.70312496,5.0039063 0,3.94921874 1.72265626,4.83984374 2.94140626,4.83984374 1.5703125,0 2.8945312,-1.37109374 2.8945312,-3.23437504 0,-1.8984375 -1.3242187,-3.1757812 -2.765625,-3.1757812 -1.2773437,0 -1.7460937,1.1015625 -1.8867187,1.5 z m 1.7578125,4.91015629 c -0.9023438,0 -1.3359375,-0.80859375 -1.4648438,-1.11328129 -0.1289062,-0.3632812 -0.2695312,-1.0664062 -0.2695312,-2.0742187 0,-1.1367188 0.515625,-2.5546875 1.8046875,-2.5546875 0.796875,0 1.2070312,0.5273437 1.4179687,1.0195312 0.234375,0.5273438 0.234375,1.2421875 0.234375,1.8632813 0,0.7382812 0,1.3828125 -0.2695312,1.921875 -0.3632813,0.69140624 -0.8789063,0.93749999 -1.453125,0.93749999 z m 0,0"
       style="fill:#000000;fill-opacity:1;fill-rule:nonzero;stroke:none"
       aria-label="6"
       transform="matrix(1.3333333,0,0,1.3333333,440.208,40.894667)" />
    <path
       id="path16"
       d="M 18.19276,0 H 35.59938"
       style="fill:none;stroke:#000000;stroke-width:0.3985;stroke-linecap:butt;stroke-linejoin:miter;stroke-miterlimit:10;stroke-dasharray:none;stroke-opacity:1"
       transform="matrix(1.3333333,0,0,-1.3333333,26.466667,34.732)" />
    <path
       id="path17"
       d="M 7.48325,0 C 6.56427,0.22145 2.52473,1.47641 0,2.84209 V -2.84209 C 2.52473,-1.47641 6.56427,-0.22145 7.48325,0 Z"
       style="fill:#000000;fill-opacity:1;fill-rule:nonzero;stroke:#000000;stroke-width:0.3985;stroke-linecap:butt;stroke-linejoin:miter;stroke-miterlimit:10;stroke-dasharray:none;stroke-opacity:1"
       transform="matrix(-1.3333333,0,0,1.3333333,50.72368,34.732)" />
    <path
       id="path18"
       d="M 7.48325,0 C 6.56427,0.22145 2.52473,1.47641 0,2.84209 V -2.84209 C 2.52473,-1.47641 6.56427,-0.22145 7.48325,0 Z"
       style="fill:#000000;fill-opacity:1;fill-rule:nonzero;stroke:#000000;stroke-width:0.3985;stroke-linecap:butt;stroke-linejoin:miter;stroke-miterlimit:10;stroke-dasharray:none;stroke-opacity:1"
       transform="matrix(1.3333333,0,0,-1.3333333,73.932507,34.732)" />
    <path
       id="path19"
       d="m 6.4212734,-4.5934531 c 0,-1.1835938 -0.070312,-2.34375 -0.5859375,-3.4335938 -0.5859375,-1.1953125 -1.6171875,-1.5117187 -2.3203125,-1.5117187 -0.8320312,0 -1.8515625,0.421875 -2.3789062,1.6054687 -0.41015626,0.9023438 -0.55078126,1.7929688 -0.55078126,3.3398438 0,1.3945312 0.10546875,2.4375 0.62109376,3.4570312 0.5625,1.08984378 1.546875,1.44140628 2.296875,1.44140628 1.2421875,0 1.9570312,-0.75 2.3789062,-1.58203128 0.515625,-1.078125 0.5390625,-2.484375 0.5390625,-3.3164062 z M 3.5033047,0.01201563 c -0.46875,0 -1.3945313,-0.2578125 -1.6640625,-1.81640623 -0.1640625,-0.8671875 -0.1640625,-1.9570313 -0.1640625,-2.953125 0,-1.1835938 0,-2.2382813 0.234375,-3.09375 0.2460937,-0.9609375 0.9726562,-1.3945313 1.59375,-1.3945313 0.5390625,0 1.3710937,0.328125 1.640625,1.5585938 0.1875,0.8203125 0.1875,1.9453125 0.1875,2.9296875 0,0.9609375 0,2.0507812 -0.1523438,2.9179687 -0.2695312,1.58203128 -1.1835937,1.85156253 -1.6757812,1.85156253 z m 0,0"
       style="fill:#000000;fill-opacity:1;fill-rule:nonzero;stroke:none"
       aria-label="0"
       transform="matrix(1.3333333,0,0,1.3333333,57.645333,30.038667)" />
    <path
       id="path20"
       d="M 70.19853,0 H 87.60515"
       style="fill:none;stroke:#000000;stroke-width:0.3985;stroke-linecap:butt;stroke-linejoin:miter;stroke-miterlimit:10;stroke-dasharray:none;stroke-opacity:1"
       transform="matrix(1.3333333,0,0,-1.3333333,26.466667,34.732)" />
    <path
       id="path21"
       d="M 7.48325,0 C 6.56427,0.22145 2.52473,1.47641 0,2.84209 V -2.84209 C 2.52473,-1.47641 6.56427,-0.22145 7.48325,0 Z"
       style="fill:#000000;fill-opacity:1;fill-rule:nonzero;stroke:#000000;stroke-width:0.3985;stroke-linecap:butt;stroke-linejoin:miter;stroke-miterlimit:10;stroke-dasharray:none;stroke-opacity:1"
       transform="matrix(-1.3333333,0,0,1.3333333,120.06471,34.732)" />
    <path
       id="path22"
       d="M 7.48325,0 C 6.56427,0.22145 2.52473,1.47641 0,2.84209 V -2.84209 C 2.52473,-1.47641 6.56427,-0.22145 7.48325,0 Z"
       style="fill:#000000;fill-opacity:1;fill-rule:nonzero;stroke:#000000;stroke-width:0.3985;stroke-linecap:butt;stroke-linejoin:miter;stroke-miterlimit:10;stroke-dasharray:none;stroke-opacity:1"
       transform="matrix(1.3333333,0,0,-1.3333333,143.27353,34.732)" />
    <path
       id="path23"
       d="m 6.4211562,-4.5934531 c 0,-1.1835938 -0.070312,-2.34375 -0.5859375,-3.4335938 -0.5859375,-1.1953125 -1.6171875,-1.5117187 -2.3203125,-1.5117187 -0.8320312,0 -1.8515625,0.421875 -2.3789062,1.6054687 -0.41015625,0.9023438 -0.55078125,1.7929688 -0.55078125,3.3398438 0,1.3945312 0.10546875,2.4375 0.62109375,3.4570312 0.5625,1.08984378 1.546875,1.44140628 2.296875,1.44140628 1.2421875,0 1.9570312,-0.75 2.3789062,-1.58203128 0.515625,-1.078125 0.5390625,-2.484375 0.5390625,-3.3164062 z M 3.5031875,0.01201563 c -0.46875,0 -1.3945313,-0.2578125 -1.6640625,-1.81640623 -0.1640625,-0.8671875 -0.1640625,-1.9570313 -0.1640625,-2.953125 0,-1.1835938 0,-2.2382813 0.234375,-3.09375 0.2460937,-0.9609375 0.9726562,-1.3945313 1.59375,-1.3945313 0.5390625,0 1.3710937,0.328125 1.640625,1.5585938 0.1875,0.8203125 0.1875,1.9453125 0.1875,2.9296875 0,0.9609375 0,2.0507812 -0.1523438,2.9179687 C 4.9094375,-0.25751562 3.995375,0.01201563 3.5031875,0.01201563 Z m 0,0"
       style="fill:#000000;fill-opacity:1;fill-rule:nonzero;stroke:none"
       aria-label="0"
       transform="matrix(1.3333333,0,0,1.3333333,126.98533,30.038667)" />
    <path
       id="path24"
       d="m 122.2043,0 h 17.40662"
       style="fill:none;stroke:#000000;stroke-width:0.3985;stroke-linecap:butt;stroke-linejoin:miter;stroke-miterlimit:10;stroke-dasharray:none;stroke-opacity:1"
       transform="matrix(1.3333333,0,0,-1.3333333,26.466667,34.732)" />
    <path
       id="path25"
       d="M 7.48325,0 C 6.56427,0.22145 2.52473,1.47641 0,2.84209 V -2.84209 C 2.52473,-1.47641 6.56427,-0.22145 7.48325,0 Z"
       style="fill:#000000;fill-opacity:1;fill-rule:nonzero;stroke:#000000;stroke-width:0.3985;stroke-linecap:butt;stroke-linejoin:miter;stroke-miterlimit:10;stroke-dasharray:none;stroke-opacity:1"
       transform="matrix(-1.3333333,0,0,1.3333333,189.40573,34.732)" />
    <path
       id="path26"
       d="M 7.48325,0 C 6.56427,0.22145 2.52473,1.47641 0,2.84209 V -2.84209 C 2.52473,-1.47641 6.56427,-0.22145 7.48325,0 Z"
       style="fill:#000000;fill-opacity:1;fill-rule:nonzero;stroke:#000000;stroke-width:0.3985;stroke-linecap:butt;stroke-linejoin:miter;stroke-miterlimit:10;stroke-dasharray:none;stroke-opacity:1"
       transform="matrix(1.3333333,0,0,-1.3333333,212.61456,34.732)" />
    <path
       id="path27"
       d="m 6.4229687,-4.5934531 c 0,-1.1835938 -0.070312,-2.34375 -0.5859375,-3.4335938 -0.5859375,-1.1953125 -1.6171875,-1.5117187 -2.3203125,-1.5117187 -0.8320312,0 -1.8515625,0.421875 -2.3789062,1.6054687 -0.41015625,0.9023438 -0.55078125,1.7929688 -0.55078125,3.3398438 0,1.3945312 0.10546875,2.4375 0.62109375,3.4570312 0.5625,1.08984378 1.546875,1.44140628 2.296875,1.44140628 1.2421875,0 1.9570312,-0.75 2.3789062,-1.58203128 0.515625,-1.078125 0.5390625,-2.484375 0.5390625,-3.3164062 z M 3.505,0.01201563 c -0.46875,0 -1.3945313,-0.2578125 -1.6640625,-1.81640623 C 1.676875,-2.6715781 1.676875,-3.7614219 1.676875,-4.7575156 c 0,-1.1835938 0,-2.2382813 0.234375,-3.09375 0.2460937,-0.9609375 0.9726562,-1.3945313 1.59375,-1.3945313 0.5390625,0 1.3710937,0.328125 1.640625,1.5585938 0.1875,0.8203125 0.1875,1.9453125 0.1875,2.9296875 0,0.9609375 0,2.0507812 -0.1523438,2.9179687 C 4.91125,-0.25751562 3.9971875,0.01201563 3.505,0.01201563 Z m 0,0"
       style="fill:#000000;fill-opacity:1;fill-rule:nonzero;stroke:none"
       aria-label="0"
       transform="matrix(1.3333333,0,0,1.3333333,196.32667,30.038667)" />
    <path
       id="path28"
       d="m 174.21007,0 h 17.40661"
       style="fill:none;stroke:#000000;stroke-width:0.3985;stroke-linecap:butt;stroke-linejoin:miter;stroke-miterlimit:10;stroke-dasharray:none;stroke-opacity:1"
       transform="matrix(1.3333333,0,0,-1.3333333,26.466667,34.732)" />
    <path
       id="path29"
       d="M 7.48325,0 C 6.56427,0.22145 2.52473,1.47641 0,2.84209 V -2.84209 C 2.52473,-1.47641 6.56427,-0.22145 7.48325,0 Z"
       style="fill:#000000;fill-opacity:1;fill-rule:nonzero;stroke:#000000;stroke-width:0.3985;stroke-linecap:butt;stroke-linejoin:miter;stroke-miterlimit:10;stroke-dasharray:none;stroke-opacity:1"
       transform="matrix(-1.3333333,0,0,1.3333333,258.74676,34.732)" />
    <path
       id="path30"
       d="M 7.48325,0 C 6.56427,0.22145 2.52473,1.47641 0,2.84209 V -2.84209 C 2.52473,-1.47641 6.56427,-0.22145 7.48325,0 Z"
       style="fill:#000000;fill-opacity:1;fill-rule:nonzero;stroke:#000000;stroke-width:0.3985;stroke-linecap:butt;stroke-linejoin:miter;stroke-miterlimit:10;stroke-dasharray:none;stroke-opacity:1"
       transform="matrix(1.3333333,0,0,-1.3333333,281.95557,34.732)" />
    <path
       id="path31"
       d="m 6.4228516,-4.5934531 c 0,-1.1835938 -0.070312,-2.34375 -0.5859375,-3.4335938 -0.5859375,-1.1953125 -1.6171875,-1.5117187 -2.3203125,-1.5117187 -0.8320313,0 -1.8515625,0.421875 -2.3789063,1.6054687 -0.41015624,0.9023438 -0.55078124,1.7929688 -0.55078124,3.3398438 0,1.3945312 0.10546875,2.4375 0.62109374,3.4570312 0.5625,1.08984378 1.546875,1.44140628 2.296875,1.44140628 1.2421875,0 1.9570313,-0.75 2.3789063,-1.58203128 0.515625,-1.078125 0.5390625,-2.484375 0.5390625,-3.3164062 z M 3.5048828,0.01201563 c -0.46875,0 -1.3945312,-0.2578125 -1.6640625,-1.81640623 -0.1640625,-0.8671875 -0.1640625,-1.9570313 -0.1640625,-2.953125 0,-1.1835938 0,-2.2382813 0.234375,-3.09375 0.2460938,-0.9609375 0.9726563,-1.3945313 1.59375,-1.3945313 0.5390625,0 1.3710938,0.328125 1.640625,1.5585938 0.1875,0.8203125 0.1875,1.9453125 0.1875,2.9296875 0,0.9609375 0,2.0507812 -0.1523437,2.9179687 -0.2695313,1.58203128 -1.1835938,1.85156253 -1.6757813,1.85156253 z m 0,0"
       style="fill:#000000;fill-opacity:1;fill-rule:nonzero;stroke:none"
       aria-label="0"
       transform="matrix(1.3333333,0,0,1.3333333,265.66667,30.038667)" />
    <path
       id="path32"
       d="m 226.21585,0 h 17.4066"
       style="fill:none;stroke:#000000;stroke-width:0.3985;stroke-linecap:butt;stroke-linejoin:miter;stroke-miterlimit:10;stroke-dasharray:none;stroke-opacity:1"
       transform="matrix(1.3333333,0,0,-1.3333333,26.466667,34.732)" />
    <path
       id="path33"
       d="M 7.48325,0 C 6.56427,0.22145 2.52473,1.47641 0,2.84209 V -2.84209 C 2.52473,-1.47641 6.56427,-0.22145 7.48325,0 Z"
       style="fill:#000000;fill-opacity:1;fill-rule:nonzero;stroke:#000000;stroke-width:0.3985;stroke-linecap:butt;stroke-linejoin:miter;stroke-miterlimit:10;stroke-dasharray:none;stroke-opacity:1"
       transform="matrix(-1.3333333,0,0,1.3333333,328.0878,34.732)" />
    <path
       id="path34"
       d="M 7.48325,0 C 6.56427,0.22145 2.52473,1.47641 0,2.84209 V -2.84209 C 2.52473,-1.47641 6.56427,-0.22145 7.48325,0 Z"
       style="fill:#000000;fill-opacity:1;fill-rule:nonzero;stroke:#000000;stroke-width:0.3985;stroke-linecap:butt;stroke-linejoin:miter;stroke-miterlimit:10;stroke-dasharray:none;stroke-opacity:1"
       transform="matrix(1.3333333,0,0,-1.3333333,351.2966,34.732)" />
    <path
       id="path35"
       d="m 6.4227344,-4.5934531 c 0,-1.1835938 -0.070312,-2.34375 -0.5859375,-3.4335938 -0.5859375,-1.1953125 -1.6171875,-1.5117187 -2.3203125,-1.5117187 -0.8320313,0 -1.8515625,0.421875 -2.3789063,1.6054687 -0.41015622,0.9023438 -0.55078122,1.7929688 -0.55078122,3.3398438 0,1.3945312 0.10546875,2.4375 0.62109372,3.4570312 0.5625,1.08984378 1.546875,1.44140628 2.296875,1.44140628 1.2421875,0 1.9570313,-0.75 2.3789063,-1.58203128 0.515625,-1.078125 0.5390625,-2.484375 0.5390625,-3.3164062 z M 3.5047656,0.01201563 c -0.46875,0 -1.3945312,-0.2578125 -1.6640625,-1.81640623 -0.1640625,-0.8671875 -0.1640625,-1.9570313 -0.1640625,-2.953125 0,-1.1835938 0,-2.2382813 0.234375,-3.09375 0.2460938,-0.9609375 0.9726563,-1.3945313 1.59375,-1.3945313 0.5390625,0 1.3710938,0.328125 1.640625,1.5585938 0.1875,0.8203125 0.1875,1.9453125 0.1875,2.9296875 0,0.9609375 0,2.0507812 -0.1523437,2.9179687 -0.2695313,1.58203128 -1.1835938,1.85156253 -1.6757813,1.85156253 z m 0,0"
       style="fill:#000000;fill-opacity:1;fill-rule:nonzero;stroke:none"
       aria-label="0"
       transform="matrix(1.3333333,0,0,1.3333333,335.00667,30.038667)" />
    <path
       id="path36"
       d="m 278.22162,0 h 17.40661"
       style="fill:none;stroke:#000000;stroke-width:0.3985;stroke-linecap:butt;stroke-linejoin:miter;stroke-miterlimit:10;stroke-dasharray:none;stroke-opacity:1"
       transform="matrix(1.3333333,0,0,-1.3333333,26.466667,34.732)" />
    <path
       id="path37"
       d="M 7.48325,0 C 6.56427,0.22145 2.52473,1.47641 0,2.84209 V -2.84209 C 2.52473,-1.47641 6.56427,-0.22145 7.48325,0 Z"
       style="fill:#000000;fill-opacity:1;fill-rule:nonzero;stroke:#000000;stroke-width:0.3985;stroke-linecap:butt;stroke-linejoin:miter;stroke-miterlimit:10;stroke-dasharray:none;stroke-opacity:1"
       transform="matrix(-1.3333333,0,0,1.3333333,397.42883,34.732)" />
    <path
       id="path38"
       d="M 7.48325,0 C 6.56427,0.22145 2.52473,1.47641 0,2.84209 V -2.84209 C 2.52473,-1.47641 6.56427,-0.22145 7.48325,0 Z"
       style="fill:#000000;fill-opacity:1;fill-rule:nonzero;stroke:#000000;stroke-width:0.3985;stroke-linecap:butt;stroke-linejoin:miter;stroke-miterlimit:10;stroke-dasharray:none;stroke-opacity:1"
       transform="matrix(1.3333333,0,0,-1.3333333,420.63764,34.732)" />
    <path
       id="path39"
       d="m 4.1374609,-9.1989219 c 0,-0.328125 0,-0.3398437 -0.2929687,-0.3398437 -0.3398438,0.3867187 -1.0664063,0.9140625 -2.5429688,0.9140625 v 0.421875 c 0.3398438,0 1.0546875,0 1.8398438,-0.375 v 7.4765625 c 0,0.51562498 -0.046875,0.69140623 -1.3007813,0.69140623 H 1.3952734 V 2.96875e-4 c 0.3867188,-0.023437495 1.78125,-0.023437495 2.25,-0.023437495 0.46875,0 1.8515625,0 2.2382813,0.023437495 V -0.40985937 H 5.4382422 c -1.265625,0 -1.3007813,-0.17578125 -1.3007813,-0.69140623 z m 0,0"
       style="fill:#000000;fill-opacity:1;fill-rule:nonzero;stroke:none"
       aria-label="1"
       transform="matrix(1.3333333,0,0,1.3333333,404.34667,30.038667)" />
  </g>
</svg>
